<svg width="18" height="15" viewBox="0 0 18 15" fill="none" xmlns="http://www.w3.org/2000/svg">
<path d="M1.5 4.16666L11.5 4.16666M11.5 4.16666C11.5 5.54737 12.6193 6.66666 14 6.66666C15.3807 6.66666 16.5 5.54737 16.5 4.16666C16.5 2.78594 15.3807 1.66666 14 1.66666C12.6193 1.66666 11.5 2.78595 11.5 4.16666ZM6.5 10.8333L16.5 10.8333M6.5 10.8333C6.5 12.214 5.38071 13.3333 4 13.3333C2.61929 13.3333 1.5 12.214 1.5 10.8333C1.5 9.45261 2.61929 8.33332 4 8.33332C5.38071 8.33332 6.5 9.45261 6.5 10.8333Z" stroke="black" stroke-width="2" stroke-linecap="round" stroke-linejoin="round"/>
</svg>
