<svg xmlns="http://www.w3.org/2000/svg" xmlns:xlink="http://www.w3.org/1999/xlink" width="500" zoomAndPan="magnify" viewBox="0 0 375 299.999988" height="400" preserveAspectRatio="xMidYMid meet" version="1.0"><defs><clipPath id="a55b60d8cd"><path d="M 17.699219 34.441406 L 359.699219 34.441406 L 359.699219 267.480469 L 17.699219 267.480469 Z M 17.699219 34.441406 " clip-rule="nonzero"/></clipPath><clipPath id="c7dd26e17a"><path d="M 5.003906 21 L 371 21 L 371 277 L 5.003906 277 Z M 5.003906 21 " clip-rule="nonzero"/></clipPath></defs><g clip-path="url(#a55b60d8cd)"><path fill="#ffffff" d="M 17.699219 34.441406 L 359.417969 34.441406 L 359.417969 267.878906 L 17.699219 267.878906 Z M 17.699219 34.441406 " fill-opacity="1" fill-rule="nonzero"/></g><g clip-path="url(#c7dd26e17a)"><path fill="#000000" d="M 355.789062 25.292969 C 340.5625 26.34375 324.800781 25.039062 309.59375 25.433594 C 254.984375 26.84375 200.226562 25.855469 145.59375 25.855469 C 118.878906 25.855469 92.164062 25.90625 65.453125 25.808594 C 50.410156 25.75 34.503906 26.648438 19.5625 23.964844 C 18.75 22.832031 17.5 22.007812 16.015625 21.761719 C 13.878906 21.402344 11.820312 22.335938 10.636719 23.988281 C 9.625 24.734375 8.859375 25.832031 8.550781 27.15625 C 8.390625 27.855469 8.367188 28.554688 8.472656 29.222656 C 8.308594 30.296875 8.472656 31.371094 8.90625 32.316406 C 6.851562 53.871094 12.464844 75.570312 12.617188 97.117188 C 13.011719 153.078125 13.714844 209.058594 14.117188 265 C 13.230469 264.917969 12.339844 264.824219 11.445312 264.726562 C 8.433594 264.398438 5.71875 266.574219 5.386719 269.585938 C 5.058594 272.597656 7.234375 275.3125 10.246094 275.640625 C 44.570312 279.410156 79.191406 272.949219 113.554688 272.792969 C 197.53125 272.402344 281.542969 271.699219 365.484375 271.316406 C 368.515625 271.304688 370.964844 268.832031 370.949219 265.804688 C 370.9375 262.773438 368.464844 260.328125 365.433594 260.339844 L 364.027344 260.347656 C 362.777344 249.820312 364.234375 238.890625 363.816406 228.359375 C 362.359375 191.222656 363.382812 153.984375 363.382812 116.828125 C 363.382812 98.648438 363.332031 80.46875 363.433594 62.289062 C 363.484375 53.3125 362.691406 43.863281 364.519531 34.84375 C 364.558594 34.707031 364.589844 34.574219 364.621094 34.4375 C 365.878906 33.304688 366.597656 31.605469 366.410156 29.792969 C 366.371094 29.4375 366.300781 29.09375 366.203125 28.765625 C 367.046875 25.980469 365.558594 22.988281 362.785156 22.003906 C 359.945312 20.996094 356.820312 22.464844 355.789062 25.292969 Z M 19.367188 41.332031 C 19.042969 59.886719 23.46875 78.515625 23.597656 97.039062 C 23.976562 150.890625 24.644531 204.761719 25.054688 258.589844 C 34.867188 248.078125 46.035156 238.796875 55.714844 228.222656 C 65.941406 217.042969 73.449219 203.691406 82.855469 191.910156 C 92.183594 180.230469 103.308594 169.984375 114.257812 159.636719 C 116.460938 157.554688 119.941406 157.652344 122.023438 159.851562 C 124.105469 162.054688 124.007812 165.53125 121.804688 167.613281 C 111.226562 177.609375 100.449219 187.476562 91.441406 198.757812 C 81.878906 210.730469 74.210938 224.273438 63.816406 235.632812 C 54.175781 246.167969 43.03125 255.402344 33.261719 265.878906 C 59.988281 265.964844 86.824219 261.933594 113.5 261.8125 C 193.332031 261.441406 273.195312 260.789062 353 260.398438 C 352.929688 259.707031 352.875 259.015625 352.828125 258.324219 C 318.894531 227.09375 280.765625 201.488281 249.757812 167.3125 C 247.722656 165.070312 247.894531 161.59375 250.136719 159.558594 C 252.382812 157.523438 255.859375 157.691406 257.894531 159.9375 C 286.398438 191.359375 321.003906 215.441406 352.726562 243.457031 C 352.863281 238.53125 353.035156 233.621094 352.84375 228.789062 C 351.378906 191.507812 352.402344 154.125 352.402344 116.828125 C 352.402344 98.628906 352.347656 80.425781 352.449219 62.226562 C 352.480469 56.726562 352.296875 51.074219 352.480469 45.429688 C 351.878906 45.976562 351.269531 46.542969 350.664062 47.121094 C 336.117188 61.011719 311.292969 87.648438 284.824219 114.179688 C 258.003906 141.0625 229.492188 167.796875 208.105469 181.441406 C 197.910156 187.945312 189.050781 191.480469 182.523438 191.476562 C 180.203125 191.476562 176.414062 190.171875 171.710938 187.113281 C 163.484375 181.761719 150.863281 170.808594 136.222656 157.035156 C 97.992188 121.074219 45.503906 65.675781 21.828125 43.570312 C 21.011719 42.800781 20.179688 42.050781 19.367188 41.332031 Z M 30.121094 36.289062 C 54.15625 58.875 105.929688 113.464844 143.746094 149.035156 C 155.832031 160.40625 166.464844 169.8125 174.242188 175.511719 C 176.625 177.253906 178.714844 178.632812 180.464844 179.5625 C 181.28125 180 182.460938 180.425781 182.660156 180.496094 C 189.652344 180.421875 199.558594 174.558594 211.355469 165.859375 C 230.851562 151.484375 254.539062 128.988281 277.046875 106.425781 C 305.265625 78.140625 331.636719 49.75 345.78125 36.640625 C 333.8125 36.78125 321.679688 36.101562 309.875 36.40625 C 255.171875 37.816406 200.320312 36.832031 145.59375 36.832031 C 118.867188 36.832031 92.136719 36.882812 65.410156 36.785156 C 53.882812 36.742188 41.871094 37.164062 30.121094 36.289062 Z M 30.121094 36.289062 " fill-opacity="1" fill-rule="evenodd"/></g></svg>