<svg xmlns="http://www.w3.org/2000/svg" xmlns:xlink="http://www.w3.org/1999/xlink" width="100" zoomAndPan="magnify" viewBox="0 0 75 37.5" height="50" preserveAspectRatio="xMidYMid meet" version="1.0"><defs><g/></defs><g fill="#000000" fill-opacity="1"><g transform="translate(5.284903, 23.65056)"><g><path d="M 7.289062 0.320312 C 7.449219 0.257812 7.585938 0.121094 7.585938 -0.0585938 C 7.585938 -0.121094 7.566406 -0.121094 7.566406 -0.179688 C 7.507812 -0.4375 7.488281 -0.738281 7.488281 -1.117188 C 7.488281 -2.648438 7.925781 -4.859375 7.984375 -5.695312 C 8.007812 -5.914062 7.847656 -6.09375 7.628906 -6.113281 C 7.410156 -6.171875 7.25 -6.015625 7.1875 -5.796875 C 7.03125 -4.679688 6.890625 -1.832031 4.339844 -0.9375 C 4.003906 -0.816406 3.664062 -0.757812 3.324219 -0.757812 C 1.992188 -0.757812 0.796875 -1.792969 0.796875 -4.203125 C 0.796875 -5.398438 0.976562 -6.550781 1.355469 -7.667969 C 2.570312 -11.273438 5.378906 -13.523438 6.632812 -13.523438 C 7.089844 -13.523438 7.308594 -13.285156 7.308594 -12.785156 C 7.308594 -12.089844 7.03125 -10.773438 6.292969 -9.679688 C 6.253906 -9.617188 6.234375 -9.539062 6.234375 -9.480469 C 6.234375 -9.339844 6.292969 -9.222656 6.414062 -9.121094 C 6.472656 -9.082031 6.53125 -9.0625 6.613281 -9.0625 C 6.75 -9.0625 6.871094 -9.121094 6.96875 -9.242188 C 7.429688 -9.9375 7.765625 -10.8125 7.984375 -11.671875 C 8.066406 -12.070312 8.105469 -12.425781 8.105469 -12.726562 C 8.105469 -13.839844 7.585938 -14.320312 6.792969 -14.320312 C 4.480469 -14.320312 0 -10.136719 0 -4.261719 C 0 -1.253906 1.613281 0.0390625 3.367188 0.0390625 C 4.582031 0.0390625 5.855469 -0.597656 6.710938 -1.710938 C 6.691406 -1.574219 6.691406 -1.453125 6.691406 -1.335938 L 6.691406 -1.035156 C 6.691406 -0.457031 6.75 -0.199219 6.8125 0.0195312 C 6.851562 0.21875 6.992188 0.320312 7.210938 0.320312 Z M 7.289062 0.320312 "/></g></g></g><g fill="#000000" fill-opacity="1"><g transform="translate(14.300366, 23.65056)"><g><path d="M 2.089844 -2.648438 C 3.386719 -2.648438 4.980469 -3.386719 6.472656 -5.835938 C 6.511719 -5.894531 6.53125 -5.953125 6.53125 -6.035156 C 6.53125 -6.214844 6.472656 -6.3125 6.332031 -6.371094 C 6.273438 -6.414062 6.195312 -6.433594 6.132812 -6.433594 C 5.996094 -6.433594 5.875 -6.371094 5.796875 -6.253906 C 5.097656 -5.078125 4.339844 -4.300781 3.542969 -3.84375 C 3.085938 -3.605469 2.550781 -3.445312 2.011719 -3.445312 C 1.273438 -3.445312 0.636719 -3.765625 0.636719 -4.621094 C 0.636719 -4.71875 0.65625 -4.820312 0.675781 -4.957031 C 2.011719 -5.058594 3.585938 -6.035156 3.585938 -7.089844 C 3.585938 -7.667969 3.148438 -8.125 2.507812 -8.125 C 2.109375 -8.125 1.632812 -7.945312 1.136719 -7.46875 C 0.359375 -6.730469 -0.140625 -5.597656 -0.140625 -4.621094 C -0.140625 -3.566406 0.476562 -2.648438 2.089844 -2.648438 Z M 0.957031 -5.816406 C 1.492188 -6.929688 2.152344 -7.328125 2.527344 -7.328125 C 2.667969 -7.328125 2.75 -7.289062 2.769531 -7.1875 C 2.867188 -6.730469 1.933594 -5.972656 0.957031 -5.816406 Z M 0.957031 -5.816406 "/></g></g></g><g fill="#000000" fill-opacity="1"><g transform="translate(19.833031, 23.65056)"><g><path d="M 0.398438 -2.667969 C 0.578125 -2.667969 0.695312 -2.75 0.757812 -2.925781 C 1.492188 -5 2.371094 -7.167969 2.828125 -7.167969 C 2.90625 -7.167969 2.96875 -7.109375 3.027344 -6.96875 C 3.085938 -6.792969 3.125 -6.550781 3.125 -6.253906 C 3.125 -5.515625 2.988281 -4.582031 3.84375 -4.042969 C 4.0625 -3.902344 4.300781 -3.824219 4.601562 -3.824219 C 5.65625 -3.824219 6.671875 -4.859375 7.269531 -5.835938 C 7.308594 -5.894531 7.328125 -5.953125 7.328125 -6.035156 C 7.328125 -6.195312 7.269531 -6.3125 7.128906 -6.371094 C 7.070312 -6.414062 6.992188 -6.433594 6.910156 -6.433594 C 6.769531 -6.433594 6.652344 -6.371094 6.59375 -6.234375 C 6.214844 -5.578125 5.335938 -4.621094 4.640625 -4.621094 C 4.5 -4.621094 4.382812 -4.660156 4.28125 -4.71875 C 3.824219 -5.019531 3.921875 -5.617188 3.921875 -6.273438 C 3.921875 -6.613281 3.902344 -6.96875 3.765625 -7.289062 C 3.585938 -7.746094 3.207031 -7.984375 2.789062 -7.984375 C 1.953125 -7.984375 1.492188 -6.929688 0.976562 -5.675781 C 1.054688 -6.453125 1.117188 -7.109375 1.195312 -7.667969 C 1.253906 -7.886719 1.074219 -8.105469 0.855469 -8.125 C 0.636719 -8.183594 0.4375 -8.007812 0.417969 -7.785156 C 0.199219 -6.253906 0.0585938 -4.363281 0 -3.085938 C -0.0195312 -2.867188 0.160156 -2.667969 0.398438 -2.667969 Z M 0.398438 -2.667969 "/></g></g></g><g fill="#000000" fill-opacity="1"><g transform="translate(26.181666, 23.65056)"><g/></g></g><g fill="#000000" fill-opacity="1"><g transform="translate(30.162001, 23.65056)"><g><path d="M 8.34375 -0.675781 C 8.402344 -0.617188 8.464844 -0.597656 8.5625 -0.597656 C 8.703125 -0.597656 8.824219 -0.65625 8.902344 -0.777344 C 8.941406 -0.835938 8.960938 -0.894531 8.960938 -0.996094 C 8.960938 -1.136719 8.941406 -1.253906 8.800781 -1.335938 C 8.382812 -1.632812 7.945312 -2.011719 7.488281 -2.507812 C 8.425781 -3.863281 8.921875 -5.515625 9.339844 -7.109375 C 9.398438 -7.328125 9.28125 -7.546875 9.0625 -7.609375 C 8.84375 -7.667969 8.644531 -7.527344 8.582031 -7.308594 C 8.183594 -5.816406 7.707031 -4.320312 6.929688 -3.125 C 5.835938 -4.402344 4.878906 -5.996094 4.242188 -7.585938 C 5.515625 -8.445312 6.792969 -9.359375 7.269531 -11.074219 C 7.347656 -11.390625 7.410156 -11.652344 7.410156 -11.949219 C 7.410156 -13.382812 6.273438 -14.199219 5.117188 -14.199219 C 3.921875 -14.199219 2.667969 -13.261719 2.667969 -11.03125 C 2.667969 -10.175781 2.828125 -9.160156 3.285156 -7.886719 C 1.933594 -6.949219 0.519531 -5.777344 0.140625 -3.941406 C 0.078125 -3.683594 0.0585938 -3.40625 0.0585938 -3.105469 C 0.0585938 -1.195312 1.453125 0.0195312 3.265625 0.0195312 C 4.460938 0.0195312 5.816406 -0.519531 6.992188 -1.871094 C 7.449219 -1.394531 7.886719 -0.976562 8.34375 -0.675781 Z M 3.964844 -8.34375 C 3.804688 -8.84375 3.683594 -9.320312 3.605469 -9.777344 C 3.523438 -10.238281 3.484375 -10.632812 3.484375 -10.992188 C 3.484375 -12.726562 4.320312 -13.441406 5.117188 -13.441406 C 5.894531 -13.441406 6.59375 -12.824219 6.59375 -11.871094 C 6.59375 -10.933594 5.933594 -9.699219 3.964844 -8.34375 Z M 1.273438 -1.710938 C 0.996094 -2.132812 0.855469 -2.609375 0.855469 -3.125 C 0.855469 -4.300781 1.574219 -5.695312 3.585938 -7.128906 C 3.722656 -6.8125 3.863281 -6.472656 4.023438 -6.152344 C 4.679688 -4.800781 5.554688 -3.523438 6.453125 -2.46875 C 5.578125 -1.414062 4.28125 -0.757812 3.167969 -0.757812 C 2.390625 -0.757812 1.734375 -1.054688 1.273438 -1.710938 Z M 1.273438 -1.710938 "/></g></g></g><g fill="#000000" fill-opacity="1"><g transform="translate(40.112846, 23.65056)"><g/></g></g><g fill="#000000" fill-opacity="1"><g transform="translate(44.093181, 23.65056)"><g><path d="M 1.792969 0 C 2.011719 0 2.171875 -0.179688 2.171875 -0.398438 L 2.25 -6.09375 C 3.742188 -6.3125 5.019531 -6.613281 6.433594 -6.992188 L 6.433594 -3.722656 C 6.433594 -2.6875 6.433594 -1.574219 6.453125 -0.398438 C 6.453125 -0.179688 6.632812 0 6.851562 0 C 7.070312 0 7.25 -0.179688 7.25 -0.398438 C 7.230469 -1.574219 7.230469 -2.707031 7.230469 -3.804688 L 7.230469 -7.210938 C 7.765625 -7.367188 8.285156 -7.546875 8.902344 -7.707031 C 9.082031 -7.765625 9.179688 -7.90625 9.179688 -8.105469 C 9.179688 -8.144531 9.179688 -8.183594 9.160156 -8.207031 C 9.121094 -8.402344 9 -8.503906 8.78125 -8.503906 C 8.722656 -8.503906 8.683594 -8.503906 8.664062 -8.484375 L 7.230469 -8.046875 C 7.210938 -8.882812 7.210938 -9.71875 7.210938 -10.574219 L 7.210938 -13.242188 C 7.210938 -13.460938 7.03125 -13.640625 6.8125 -13.640625 C 6.59375 -13.640625 6.414062 -13.460938 6.414062 -13.242188 L 6.414062 -10.457031 C 6.414062 -9.558594 6.414062 -8.683594 6.433594 -7.808594 C 5 -7.410156 3.742188 -7.128906 2.25 -6.910156 C 2.308594 -10.15625 2.371094 -13.542969 2.429688 -13.859375 C 2.488281 -14.082031 2.351562 -14.277344 2.132812 -14.339844 C 1.910156 -14.398438 1.710938 -14.257812 1.652344 -14.039062 C 1.574219 -13.582031 1.453125 -7.507812 1.453125 -6.8125 C 1.117188 -6.75 0.738281 -6.75 0.359375 -6.691406 C 0.140625 -6.671875 0 -6.53125 0 -6.3125 L 0 -6.273438 C 0.0195312 -6.054688 0.179688 -5.894531 0.398438 -5.894531 L 0.4375 -5.894531 C 0.777344 -5.953125 1.117188 -5.933594 1.453125 -5.996094 L 1.375 -0.378906 C 1.375 -0.160156 1.554688 0 1.773438 0 Z M 1.792969 0 "/></g></g></g><g fill="#000000" fill-opacity="1"><g transform="translate(53.267869, 23.65056)"><g><path d="M 3.167969 -3.722656 C 3.464844 -4.261719 3.644531 -4.878906 3.644531 -5.496094 C 3.863281 -5.457031 4.082031 -5.4375 4.339844 -5.4375 C 4.800781 -5.4375 5.296875 -5.515625 5.835938 -5.65625 C 6.035156 -5.714844 6.132812 -5.855469 6.132812 -6.074219 L 6.132812 -6.152344 C 6.074219 -6.3125 5.914062 -6.453125 5.734375 -6.453125 C 5.675781 -6.453125 5.695312 -6.433594 5.636719 -6.433594 C 5.179688 -6.292969 4.757812 -6.234375 4.363281 -6.234375 C 4.042969 -6.234375 3.765625 -6.292969 3.523438 -6.351562 C 3.367188 -7.070312 2.707031 -8.144531 1.953125 -8.046875 C 1.890625 -8.085938 1.8125 -8.105469 1.734375 -8.105469 C 1.632812 -8.105469 1.535156 -8.085938 1.472656 -8.027344 C 0.894531 -7.527344 0.457031 -6.890625 0.238281 -6.113281 C 0.0976562 -5.675781 0.0390625 -5.257812 0.0390625 -4.859375 C 0.0390625 -3.503906 0.796875 -2.648438 1.652344 -2.648438 C 2.191406 -2.648438 2.707031 -2.988281 3.167969 -3.722656 Z M 2.46875 -4.140625 C 2.171875 -3.664062 1.890625 -3.425781 1.632812 -3.425781 C 1.175781 -3.425781 0.855469 -4.082031 0.855469 -4.9375 C 0.855469 -5.578125 1.054688 -6.332031 1.554688 -6.96875 C 1.734375 -6.511719 2.171875 -6.054688 2.828125 -5.753906 C 2.828125 -5.675781 2.847656 -5.597656 2.847656 -5.496094 C 2.847656 -5 2.6875 -4.519531 2.46875 -4.140625 Z M 2.46875 -4.140625 "/></g></g></g><g fill="#000000" fill-opacity="1"><g transform="translate(58.50202, 23.65056)"><g><path d="M 3.226562 4.101562 C 3.921875 2.609375 4.300781 0.597656 4.519531 -1.035156 L 6.8125 -3.324219 C 7.585938 -4.101562 8.265625 -4.9375 8.863281 -5.855469 C 8.902344 -5.914062 8.921875 -5.972656 8.921875 -6.054688 C 8.921875 -6.195312 8.863281 -6.3125 8.742188 -6.394531 C 8.683594 -6.433594 8.601562 -6.453125 8.503906 -6.453125 C 8.363281 -6.453125 8.246094 -6.394531 8.183594 -6.292969 C 7.230469 -4.800781 5.933594 -3.542969 4.660156 -2.289062 C 4.800781 -3.484375 4.820312 -4.660156 4.820312 -5.695312 C 4.820312 -6.492188 4.800781 -7.1875 4.738281 -7.765625 C 4.71875 -7.984375 4.5625 -8.125 4.382812 -8.125 C 4.164062 -8.144531 4.023438 -8.046875 3.964844 -7.828125 C 3.425781 -5.65625 2.25 -3.984375 1.3125 -3.785156 C 0.894531 -3.703125 0.71875 -3.984375 0.71875 -4.519531 C 0.71875 -5.179688 0.996094 -6.171875 1.492188 -7.1875 C 1.511719 -7.230469 1.511719 -7.289062 1.511719 -7.347656 C 1.511719 -7.566406 1.375 -7.765625 1.117188 -7.765625 C 0.957031 -7.765625 0.835938 -7.6875 0.777344 -7.546875 C 0.160156 -6.292969 -0.078125 -5.296875 -0.078125 -4.5625 C -0.078125 -3.503906 0.417969 -2.96875 1.117188 -2.96875 C 1.992188 -2.96875 3.167969 -3.824219 4.023438 -5.636719 C 4.023438 -4.28125 3.941406 -2.847656 3.765625 -1.414062 C 1.074219 1.273438 0.160156 3.445312 0.160156 4.71875 C 0.160156 5.578125 0.578125 6.035156 1.136719 6.035156 C 1.773438 6.035156 2.609375 5.4375 3.226562 4.101562 Z M 1.035156 5.15625 C 0.996094 5.078125 0.976562 4.957031 0.976562 4.800781 C 0.976562 4.421875 1.09375 3.863281 1.472656 3.046875 C 1.8125 2.332031 2.429688 1.273438 3.566406 -0.0195312 C 2.707031 5.117188 1.136719 5.417969 1.035156 5.15625 Z M 1.035156 5.15625 "/></g></g></g><g fill="#000000" fill-opacity="1"><g transform="translate(66.422891, 23.65056)"><g><path d="M 0.496094 -2.789062 C 0.675781 -2.6875 0.855469 -2.628906 1.035156 -2.628906 C 2.269531 -2.628906 3.585938 -4.660156 4.222656 -5.835938 C 4.242188 -5.914062 4.261719 -5.972656 4.261719 -6.015625 C 4.261719 -6.152344 4.203125 -6.273438 4.0625 -6.371094 C 3.984375 -6.394531 3.921875 -6.414062 3.882812 -6.414062 C 3.722656 -6.414062 3.605469 -6.351562 3.503906 -6.214844 C 2.6875 -4.757812 1.652344 -3.445312 1.054688 -3.445312 C 0.996094 -3.445312 0.957031 -3.464844 0.894531 -3.484375 C 0.757812 -3.566406 0.695312 -3.765625 0.695312 -4.101562 C 0.695312 -5.117188 1.3125 -7.050781 1.472656 -7.566406 C 1.535156 -7.785156 1.414062 -8.007812 1.195312 -8.066406 C 0.976562 -8.125 0.757812 -7.984375 0.695312 -7.765625 C 0.378906 -6.59375 -0.078125 -5.199219 -0.078125 -4.140625 C -0.078125 -3.523438 0.078125 -3.046875 0.496094 -2.789062 Z M 1.613281 -9.179688 C 1.8125 -9.179688 1.933594 -9.28125 1.992188 -9.460938 L 2.171875 -10.058594 C 2.25 -10.355469 2.011719 -10.554688 1.773438 -10.554688 C 1.613281 -10.554688 1.453125 -10.476562 1.394531 -10.257812 L 1.3125 -9.976562 L 1.234375 -9.679688 C 1.175781 -9.441406 1.3125 -9.179688 1.613281 -9.179688 Z M 1.613281 -9.179688 "/></g></g></g></svg>