<svg width="27" height="27" viewBox="0 0 27 27" fill="none" xmlns="http://www.w3.org/2000/svg">
<rect width="27" height="27" rx="5.70302" fill="url(#paint0_linear_657_31134)"/>
<path d="M11.2531 13.5348C11.2531 12.2911 12.2607 11.2826 13.5041 11.2826C14.7474 11.2826 15.7556 12.2911 15.7556 13.5348C15.7556 14.7785 14.7474 15.787 13.5041 15.787C12.2607 15.787 11.2531 14.7785 11.2531 13.5348ZM10.0359 13.5348C10.0359 15.4508 11.5886 17.0039 13.5041 17.0039C15.4195 17.0039 16.9722 15.4508 16.9722 13.5348C16.9722 11.6188 15.4195 10.0657 13.5041 10.0657C11.5886 10.0657 10.0359 11.6188 10.0359 13.5348ZM16.299 9.92813C16.2989 10.0885 16.3464 10.2452 16.4354 10.3786C16.5244 10.512 16.6509 10.6159 16.799 10.6773C16.9471 10.7388 17.11 10.7549 17.2673 10.7237C17.4245 10.6924 17.5689 10.6153 17.6823 10.502C17.7957 10.3886 17.873 10.2442 17.9043 10.0869C17.9357 9.92969 17.9197 9.76667 17.8584 9.61851C17.7971 9.47034 17.6933 9.34368 17.56 9.25455C17.4268 9.16541 17.2701 9.1178 17.1098 9.11774H17.1095C16.8946 9.11784 16.6886 9.20324 16.5366 9.35519C16.3846 9.50713 16.2992 9.7132 16.299 9.92813ZM10.7754 19.034C10.1169 19.004 9.75901 18.8943 9.52116 18.8016C9.20583 18.6788 8.98084 18.5326 8.74428 18.2963C8.50773 18.06 8.3613 17.8351 8.23908 17.5197C8.14636 17.2819 8.03667 16.9238 8.00674 16.2651C7.974 15.553 7.96746 15.339 7.96746 13.5349C7.96746 11.7307 7.97454 11.5174 8.00674 10.8046C8.03673 10.1459 8.14722 9.78853 8.23908 9.55001C8.36184 9.23459 8.50805 9.00953 8.74428 8.77291C8.98051 8.53629 9.20529 8.38982 9.52116 8.26756C9.7589 8.17481 10.1169 8.0651 10.7754 8.03515C11.4873 8.0024 11.7012 7.99586 13.5041 7.99586C15.3069 7.99586 15.521 8.00294 16.2335 8.03515C16.892 8.06515 17.2493 8.17568 17.4878 8.26756C17.8031 8.38982 18.0281 8.53661 18.2646 8.77291C18.5012 9.00921 18.6471 9.23459 18.7698 9.55001C18.8626 9.78782 18.9722 10.1459 19.0022 10.8046C19.0349 11.5174 19.0415 11.7307 19.0415 13.5349C19.0415 15.339 19.0349 15.5524 19.0022 16.2651C18.9722 16.9238 18.862 17.2818 18.7698 17.5197C18.6471 17.8351 18.5009 18.0602 18.2646 18.2963C18.0284 18.5324 17.8031 18.6788 17.4878 18.8016C17.25 18.8944 16.892 19.0041 16.2335 19.034C15.5216 19.0668 15.3077 19.0733 13.5041 19.0733C11.7004 19.0733 11.4871 19.0668 10.7754 19.034ZM10.7195 6.81972C10.0005 6.85248 9.50916 6.96652 9.08009 7.13353C8.63573 7.30599 8.25956 7.53737 7.88365 7.91279C7.50775 8.28821 7.27703 8.66508 7.10461 9.10957C6.93765 9.53904 6.82365 10.0302 6.7909 10.7494C6.75762 11.4698 6.75 11.7001 6.75 13.5348C6.75 15.3695 6.75762 15.5998 6.7909 16.3202C6.82365 17.0394 6.93765 17.5306 7.10461 17.96C7.27703 18.4043 7.5078 18.7816 7.88365 19.1568C8.2595 19.5321 8.63573 19.7631 9.08009 19.9361C9.50998 20.1031 10.0005 20.2171 10.7195 20.2499C11.44 20.2826 11.6699 20.2908 13.5041 20.2908C15.3382 20.2908 15.5685 20.2832 16.2886 20.2499C17.0077 20.2171 17.4987 20.1031 17.928 19.9361C18.3721 19.7631 18.7485 19.5322 19.1244 19.1568C19.5004 18.7814 19.7306 18.4043 19.9035 17.96C20.0704 17.5306 20.185 17.0394 20.2172 16.3202C20.2499 15.5993 20.2576 15.3695 20.2576 13.5348C20.2576 11.7001 20.2499 11.4698 20.2172 10.7494C20.1845 10.0302 20.0704 9.53877 19.9035 9.10957C19.7306 8.66535 19.4998 8.2888 19.1244 7.91279C18.7491 7.53678 18.3721 7.30599 17.9285 7.13353C17.4987 6.96652 17.0076 6.85194 16.2892 6.81972C15.569 6.78697 15.3388 6.77881 13.5046 6.77881C11.6704 6.77881 11.44 6.78643 10.7195 6.81972Z" fill="white"/>
<defs>
<linearGradient id="paint0_linear_657_31134" x1="26.4811" y1="27" x2="-0.518939" y2="-7.26764e-07" gradientUnits="userSpaceOnUse">
<stop stop-color="#FBE18A"/>
<stop offset="0.21" stop-color="#FCBB45"/>
<stop offset="0.38" stop-color="#F75274"/>
<stop offset="0.52" stop-color="#D53692"/>
<stop offset="0.74" stop-color="#8F39CE"/>
<stop offset="1" stop-color="#5B4FE9"/>
</linearGradient>
</defs>
</svg>
