<svg width="74" height="74" viewBox="0 0 74 74" fill="none" xmlns="http://www.w3.org/2000/svg">
<path d="M51.29 21.7102H22.12C15.31 21.7102 9.79004 26.8202 9.79004 33.1302V48.6402C9.79004 54.9502 15.31 60.0602 22.12 60.0602H40.09L52.24 66.4702L53.81 59.8102C59.41 58.7302 63.62 54.1402 63.62 48.6302V33.1202C63.62 26.8102 58.1 21.7002 51.29 21.7002V21.7102Z" stroke="#231F20" stroke-width="3" stroke-miterlimit="10"/>
<path d="M24.6104 35.8802V40.3602C24.6104 40.8402 24.8204 41.3502 25.1604 41.6902C25.5004 42.0302 26.0204 42.2602 26.4904 42.2402C27.5104 42.1902 28.3703 41.4202 28.3703 40.3602V35.8802C28.3703 35.4002 28.1604 34.8902 27.8204 34.5502C27.4804 34.2102 26.9604 33.9802 26.4904 34.0002C25.4704 34.0502 24.6104 34.8202 24.6104 35.8802Z" fill="#231F20"/>
<path d="M45.0403 35.8802V40.3602C45.0403 40.8402 45.2503 41.3502 45.5903 41.6902C45.9303 42.0302 46.4503 42.2602 46.9203 42.2402C47.9403 42.1902 48.8003 41.4202 48.8003 40.3602V35.8802C48.8003 35.4002 48.5903 34.8902 48.2503 34.5502C47.9103 34.2102 47.3903 33.9802 46.9203 34.0002C45.9003 34.0502 45.0403 34.8202 45.0403 35.8802Z" fill="#231F20"/>
<path d="M39.0104 42.5904L36.0504 44.5804H37.9404L34.9804 42.5904C34.1604 42.0404 32.8704 42.4104 32.4104 43.2604C31.9104 44.2104 32.2104 45.2404 33.0804 45.8304L36.0404 47.8204C36.5604 48.1704 37.4104 48.1704 37.9304 47.8204L40.8904 45.8304C41.3004 45.5604 41.6204 45.1904 41.7504 44.7104C41.8704 44.2604 41.8204 43.6604 41.5604 43.2704C41.0404 42.4604 39.8704 42.0104 38.9904 42.6004L39.0104 42.5904Z" fill="#231F20"/>
<path d="M5.99 33.3999H9.79V46.6699H6C4.9 46.6699 4 45.7699 4 44.6699V35.3999C4 34.2999 4.89 33.3999 6 33.3999H5.99Z" stroke="#231F20" stroke-width="3" stroke-miterlimit="10"/>
<path d="M67.4104 48.0498H63.6104V34.7798H67.4004C68.5004 34.7798 69.4004 35.6798 69.4004 36.7798V46.0498C69.4004 47.1498 68.5104 48.0498 67.4004 48.0498H67.4104Z" stroke="#231F20" stroke-width="3" stroke-miterlimit="10"/>
<path d="M36.4103 15.8C38.5642 15.8 40.3103 14.0539 40.3103 11.9C40.3103 9.74609 38.5642 8 36.4103 8C34.2563 8 32.5103 9.74609 32.5103 11.9C32.5103 14.0539 34.2563 15.8 36.4103 15.8Z" stroke="#231F20" stroke-width="3" stroke-miterlimit="10"/>
<path d="M36.4102 21.7098V15.7998" stroke="#231F20" stroke-width="3" stroke-miterlimit="10"/>
<path d="M48.7502 27.9902H24.0702C20.0109 27.9902 16.7202 31.2809 16.7202 35.3402V46.4602C16.7202 50.5195 20.0109 53.8102 24.0702 53.8102H48.7502C52.8095 53.8102 56.1002 50.5195 56.1002 46.4602V35.3402C56.1002 31.2809 52.8095 27.9902 48.7502 27.9902Z" stroke="#231F20" stroke-width="3" stroke-miterlimit="10"/>
</svg>
