<svg width="55" height="55" viewBox="0 0 55 55" fill="none" xmlns="http://www.w3.org/2000/svg">
<path d="M37.811 16.3072H16.7641C11.8505 16.3072 7.86768 19.9942 7.86768 24.547V35.7379C7.86768 40.2907 11.8505 43.9777 16.7641 43.9777H29.7299L38.4964 48.6027L39.6292 43.7973C43.6698 43.0181 46.7074 39.7063 46.7074 35.7307V24.5398C46.7074 19.987 42.7246 16.3 37.811 16.3V16.3072Z" fill="white" stroke="#0F1242" stroke-width="2" stroke-miterlimit="10"/>
<path d="M35.9781 20.7951H18.1709C15.242 20.7951 12.8677 23.1694 12.8677 26.0983V34.1217C12.8677 37.0506 15.242 39.4249 18.1709 39.4249H35.9781C38.907 39.4249 41.2813 37.0506 41.2813 34.1217V26.0983C41.2813 23.1694 38.907 20.7951 35.9781 20.7951Z" fill="#DEDFF7" stroke="#DEDFF7" stroke-width="2" stroke-miterlimit="10"/>
<path d="M18.5605 26.5312V29.7637C18.5605 30.11 18.7121 30.478 18.9574 30.7233C19.2027 30.9686 19.5779 31.1346 19.917 31.1201C20.653 31.0841 21.2735 30.5285 21.2735 29.7637V26.5312C21.2735 26.1849 21.122 25.8169 20.8766 25.5716C20.6313 25.3263 20.2561 25.1603 19.917 25.1748C19.1811 25.2108 18.5605 25.7664 18.5605 26.5312Z" fill="#0F1242"/>
<path d="M33.3013 26.5312V29.7637C33.3013 30.11 33.4528 30.478 33.6981 30.7233C33.9434 30.9686 34.3186 31.1346 34.6577 31.1201C35.3937 31.0841 36.0142 30.5285 36.0142 29.7637V26.5312C36.0142 26.1849 35.8627 25.8169 35.6174 25.5716C35.372 25.3263 34.9969 25.1603 34.6577 25.1748C33.9218 25.2108 33.3013 25.7664 33.3013 26.5312Z" fill="#0F1242"/>
<path d="M28.9503 31.3727C28.236 31.8489 27.5289 32.3251 26.8146 32.8085H28.1783C27.4639 32.3323 26.7568 31.8561 26.0425 31.3727C25.4509 30.9758 24.5201 31.2428 24.1882 31.8561C23.8275 32.5415 24.0439 33.2847 24.6716 33.7104C25.386 34.1866 26.093 34.6628 26.8074 35.1462C27.1825 35.3988 27.7958 35.3988 28.171 35.1462C28.8853 34.67 29.5924 34.1938 30.3068 33.7104C30.6026 33.5156 30.8335 33.2486 30.9273 32.9023C31.0138 32.5776 30.9778 32.1447 30.7902 31.8633C30.415 31.2789 29.5708 30.9542 28.9359 31.3799L28.9503 31.3727Z" fill="#0F1242"/>
<path d="M5.12578 24.7419H7.86757V34.3165H5.13299C4.33931 34.3165 3.68994 33.6671 3.68994 32.8735V26.1849C3.68994 25.3913 4.3321 24.7419 5.13299 24.7419H5.12578Z" fill="white" stroke="#0F1242" stroke-width="2" stroke-miterlimit="10"/>
<path d="M49.4416 35.3122H46.6998V25.7376H49.4344C50.2281 25.7376 50.8774 26.3869 50.8774 27.1806V33.8691C50.8774 34.6628 50.2353 35.3122 49.4344 35.3122H49.4416Z" fill="white" stroke="#0F1242" stroke-width="2" stroke-miterlimit="10"/>
<path d="M27.0742 12.043C28.6283 12.043 29.8881 10.7831 29.8881 9.22905C29.8881 7.67495 28.6283 6.4151 27.0742 6.4151C25.5201 6.4151 24.2603 7.67495 24.2603 9.22905C24.2603 10.7831 25.5201 12.043 27.0742 12.043Z" fill="white" stroke="#0F1242" stroke-width="2" stroke-miterlimit="10"/>
<path d="M27.0747 16.3072V12.043" stroke="#0F1242" stroke-width="2" stroke-miterlimit="10"/>
</svg>
